<svg version="1.1" id="Layer_1" xmlns="http://www.w3.org/2000/svg" xmlns:xlink="http://www.w3.org/1999/xlink" x="0px" y="0px" enable-background="new 0 0 1024 1024" xml:space="preserve" viewBox="307.97 248.55 413.33 556.83">
<path fill="#000000" opacity="1.000000" stroke="none" d=" M347.783020,547.000000   C347.827576,489.668701 347.870728,432.837372 347.925354,376.006073   C347.927124,374.175415 347.897675,372.325134 348.137726,370.517883   C348.947144,364.425262 352.909088,361.345856 359.283722,361.715668   C364.495758,362.018036 368.261597,366.018188 368.276794,371.727539   C368.349091,398.893127 368.319733,426.058990 368.340424,453.224731   C368.347717,462.802490 372.796295,465.632935 381.350189,460.935669   C392.831390,454.630951 402.457367,445.829529 411.741608,436.714935   C429.979736,418.809967 444.100525,398.347626 451.144470,373.401398   C453.759277,364.141052 457.012360,361.363129 463.086548,361.466888   C469.060913,361.568939 472.569824,364.840240 472.267792,370.835632   C471.755585,381.001862 467.837646,390.259247 463.484955,399.252441   C448.553009,430.103394 426.194702,454.578339 398.378235,474.267975   C392.339966,478.542114 392.016449,480.036835 397.146790,484.275970   C427.871918,509.663971 454.000702,539.450012 479.349243,569.991211   C482.964539,574.347107 486.749725,578.561646 490.403076,582.886475   C495.353546,588.746887 495.321991,594.742432 490.385132,598.732117   C485.915497,602.344238 479.280029,601.287476 474.872894,596.133118   C458.309601,576.761353 442.321747,556.887817 424.926117,538.241760   C412.875275,525.324646 400.027985,513.198792 386.973053,501.300934   C384.490662,499.038574 381.593384,497.352814 378.490509,496.094513   C372.124847,493.513092 368.352844,495.970520 368.345428,502.734650   C368.313873,531.567017 368.344574,560.399475 368.299194,589.231812   C368.290161,594.965576 365.006622,598.982971 359.815277,599.988892   C355.536041,600.818115 350.368561,597.778198 348.571808,593.406738   C347.719788,591.333740 347.818604,589.156250 347.814453,586.997742   C347.789124,573.831848 347.790741,560.665894 347.783020,547.000000  z"/>
<path fill="#000000" opacity="1.000000" stroke="none" d=" M683.282349,380.171326   C682.269836,390.896301 674.295593,394.601257 665.536987,388.515015   C653.317444,380.023712 640.098572,375.885406 625.104614,377.221161   C599.941772,379.462830 583.812134,403.027130 592.258911,425.684570   C595.325684,433.910797 601.220703,440.025177 607.853088,445.457214   C623.085632,457.933075 639.982117,468.052490 656.081421,479.301178   C669.731628,488.838654 681.356750,500.177063 687.067688,516.162842   C701.779968,557.344177 677.043640,592.349548 638.375549,600.994263   C613.106750,606.643372 589.795776,601.581726 569.237610,585.417175   C565.653442,582.599060 563.407593,579.054993 564.415588,574.163086   C565.320129,569.773010 567.964844,566.875671 572.279541,566.121460   C577.089905,565.280579 581.003357,567.867432 584.466797,570.779724   C592.451843,577.494263 601.531433,581.839783 611.822754,583.220886   C630.028503,585.664062 647.014587,582.665466 660.023926,568.670471   C674.953552,552.609558 674.177246,526.585754 659.168213,509.241791   C651.088745,499.905426 640.562683,493.699249 630.714355,486.607269   C615.868042,475.916107 600.072327,466.465271 586.838196,453.650940   C570.911560,438.229675 564.783264,419.584747 571.112976,398.168182   C577.397400,376.904633 593.096558,364.927094 614.056213,359.800201   C636.640259,354.275970 657.591553,359.388641 677.229675,371.057159   C680.508240,373.005280 682.823608,375.768616 683.282349,380.171326  z"/>
<path fill="#000000" opacity="1.000000" stroke="none" d=" M528.591431,292.833496   C510.141479,293.602722 492.274109,292.281250 474.556641,289.617737   C473.555786,290.921997 474.715546,291.594666 475.207672,292.273163   C486.223541,307.461304 489.494171,324.951019 490.297974,343.145447   C490.510925,347.965240 490.398773,352.805359 490.276764,357.632141   C490.177277,361.566406 488.051239,364.070251 484.072784,363.920654   C480.427948,363.783539 478.677704,361.581146 478.540466,357.650269   C477.794617,336.286041 473.435944,316.028961 462.838715,296.965973   C459.033539,290.121033 456.006470,284.168335 448.919495,279.875061   C441.241241,275.223572 442.514191,264.325226 450.354309,259.567871   C459.380463,254.090836 469.548279,252.001877 479.790527,250.832626   C509.350983,247.458038 538.893372,247.714325 568.295471,252.682236   C574.533081,253.736160 580.665100,255.355438 586.187439,258.638702   C596.799927,264.948212 597.496643,274.984100 586.908508,281.321686   C581.711243,284.432526 579.407532,288.015686 577.518127,293.423248   C575.127014,300.266846 570.652527,306.295471 567.853882,313.099335   C564.388306,321.524811 562.837402,330.293701 562.164551,339.291351   C562.028198,341.114655 561.849365,342.940125 561.572144,344.746460   C561.037415,348.231567 559.578674,350.744080 555.439148,350.426300   C551.500732,350.123993 549.827393,347.659760 549.755188,344.126404   C549.530029,333.120117 550.403381,322.229492 553.492676,311.578217   C555.845276,303.466888 560.050842,296.353546 565.733887,288.674164   C552.924805,290.798828 541.017090,292.077728 528.591431,292.833496  M464.506805,273.139801   C474.535126,276.529602 485.010437,277.121857 495.427856,277.938538   C520.570129,279.909515 545.559631,278.884735 570.244446,273.394470   C572.565674,272.878235 575.538940,272.838104 576.960815,270.019379   C558.351379,259.625824 470.852173,260.174377 460.115601,270.624268   C460.899719,272.111176 462.461365,272.334015 464.506805,273.139801  z"/>
<path fill="#000000" opacity="1.000000" stroke="none" d=" M422.845520,573.241943   C431.657227,596.255066 444.397888,615.663513 465.928802,628.247131   C475.091522,633.602295 485.133087,636.191650 495.454559,636.508850   C512.406921,637.029907 529.399048,637.795166 546.356628,635.756775   C558.844360,634.255615 569.823120,629.608154 579.056641,621.152344   C584.448975,616.214233 590.600647,612.123779 595.301575,606.389160   C596.504089,604.922241 598.422546,603.773193 600.242310,603.143433   C603.070801,602.164734 605.504639,603.275330 605.539185,606.490173   C605.594971,611.684082 605.048889,616.740356 600.488281,620.501404   C595.786255,624.379028 591.409729,628.651367 586.881348,632.759583   C588.429810,634.946594 590.365479,634.610291 592.122253,634.670837   C597.446838,634.854187 602.224792,636.787964 606.687439,639.444397   C611.170288,642.112793 611.050415,644.648865 606.619019,647.658264   C603.797729,649.574280 600.543091,650.350098 597.327332,651.195068   C581.290771,655.408875 564.885620,656.515564 548.400330,657.407410   C532.247986,658.281250 516.047791,659.216614 499.971313,657.966797   C480.295227,656.437073 460.304749,656.968872 441.116943,651.127563   C438.422699,650.307373 435.801727,649.192444 433.238556,648.014282   C431.420563,647.178589 429.541138,646.070862 429.572357,643.704590   C429.605133,641.218384 431.460938,639.840637 433.420319,638.882141   C435.396484,637.915527 437.494934,636.641052 439.859283,637.976929   C439.749512,638.552429 439.786072,638.931763 439.616821,639.154968   C438.529205,640.589050 435.177490,640.447144 436.243011,643.268555   C437.104492,645.549805 439.483337,645.833191 441.741974,645.945679   C446.820038,646.198303 451.951935,648.008789 456.898071,645.186218   C458.170227,644.460266 459.767426,644.251404 460.614044,642.400940   C453.548096,637.497009 447.024384,631.885620 440.739685,625.955139   C421.605347,607.899292 410.938416,585.426147 405.691223,560.005310   C404.377960,553.643127 403.497192,547.240967 403.013885,540.779419   C402.879181,538.978516 402.934601,537.115662 403.242126,535.339966   C403.792297,532.163330 405.704559,530.205505 409.082916,530.388306   C412.499603,530.573242 414.007660,532.851990 414.309204,536.003357   C415.520264,548.659180 418.963165,560.801880 422.845520,573.241943  z"/>
<path fill="#000000" opacity="1.000000" stroke="none" d=" M541.836914,718.028442   C541.796021,714.705139 541.855408,711.869995 541.692078,709.047852   C541.350220,703.139648 539.121582,700.328430 534.914124,700.271851   C530.296387,700.209656 526.481934,704.031311 526.332642,709.456177   C526.112915,717.440735 526.327820,725.436646 526.159973,733.423584   C526.111755,735.717773 527.488708,739.187927 524.285278,739.937561   C520.476807,740.828796 516.344055,740.795715 512.458374,739.654480   C511.508026,739.375244 511.557159,737.994385 511.557526,736.975769   C511.562836,721.519043 511.561218,706.062317 511.561218,690.456604   C515.530334,689.021118 519.408813,689.826172 523.126221,689.253113   C526.531128,688.728088 524.648682,692.796692 526.479065,693.830078   C538.350708,685.826233 545.767761,685.648193 555.013428,695.203796   C556.623474,694.965881 557.426453,693.550720 558.582520,692.658813   C564.552307,688.053040 570.937073,686.630432 578.221008,689.384094   C584.999939,691.946899 586.787842,697.682434 587.054749,703.746277   C587.537292,714.711304 587.224243,725.710632 587.287781,736.695374   C587.302917,739.303711 585.904785,740.024414 583.547363,740.245239   C573.099304,741.224121 572.684387,740.884094 572.671021,730.307434   C572.661987,723.149963 572.895203,715.977234 572.490234,708.841309   C572.275757,705.061951 571.312256,701.044861 566.369629,700.338196   C562.133179,699.732422 558.983032,702.102600 557.120056,707.015503   C556.386902,708.948853 556.320679,710.906006 556.319641,712.903870   C556.315735,720.228271 556.131775,727.558777 556.380554,734.874634   C556.520447,738.987732 555.111816,740.778748 550.955505,740.259460   C549.808167,740.116089 548.613953,740.121033 547.464966,740.257507   C543.052856,740.781555 541.523376,738.814270 541.747009,734.499939   C542.022339,729.186890 541.827820,723.849426 541.836914,718.028442  z"/>
<path fill="#000000" opacity="1.000000" stroke="none" d=" M347.246338,689.223389   C344.407104,692.949707 341.951447,696.542236 339.089478,699.775085   C336.718292,702.453552 337.081635,704.431274 339.191071,707.081177   C346.655273,716.457764 353.906616,726.003967 361.214294,735.504639   C362.077637,736.627075 363.641022,737.429626 363.000610,739.987854   C357.503937,740.520996 351.779327,740.412415 346.065887,740.004883   C344.196381,739.871521 343.548798,737.973206 342.627014,736.629639   C336.977356,728.394775 331.361359,720.136902 325.724548,711.893188   C325.278717,711.241150 324.962982,710.396057 324.009430,710.387329   C324.009430,718.491516 323.870850,726.581848 324.069183,734.663879   C324.165222,738.577393 323.152496,740.437134 318.782440,740.309387   C306.822357,739.959839 308.148193,741.769531 308.098083,729.625061   C308.024567,711.806519 308.178650,693.986267 307.983307,676.169495   C307.930603,671.362549 309.196136,669.295044 314.457855,669.578369   C324.230804,670.104553 323.912567,668.083862 323.919159,679.017517   C323.923035,685.423462 323.919861,691.829407 323.919861,699.070129   C329.389038,691.001831 334.753113,683.630798 339.500092,675.881775   C342.332916,671.257385 345.548920,668.694885 351.160980,669.632019   C354.069611,670.117676 357.123169,669.183594 360.739502,670.388062   C356.838409,677.155029 351.991302,682.940247 347.246338,689.223389  z"/>
<path fill="#000000" opacity="1.000000" stroke="none" d=" M641.199219,700.835815   C641.202942,703.624146 641.202942,705.942017 641.202942,708.259888   C641.500427,708.426086 641.797913,708.592285 642.095398,708.758484   C645.368164,704.357056 648.976624,700.160339 651.819824,695.497009   C654.687622,690.793335 658.331543,688.809937 663.729614,689.636536   C666.160583,690.008667 668.710938,689.255859 671.575134,690.401001   C670.638306,694.312561 667.375671,696.592468 665.186890,699.505005   C662.591675,702.958252 659.745728,706.240173 656.817993,709.421082   C654.487549,711.953064 654.425293,714.067627 656.703979,716.748169   C662.414246,723.465393 667.903564,730.370422 673.488770,737.194214   C673.999329,737.817993 674.771912,738.304810 674.204834,739.958862   C668.956604,740.592346 663.402039,740.410400 657.866638,740.015625   C656.054443,739.886414 655.290344,738.055176 654.344910,736.707703   C650.338867,730.998657 646.352356,725.275940 641.163513,719.608459   C641.163513,724.398743 640.927673,729.203979 641.230469,733.975037   C641.528503,738.670898 639.969055,740.537231 635.033936,740.330017   C625.099792,739.913025 626.689148,741.279785 626.667175,731.708313   C626.620178,711.227173 626.758057,690.744629 626.524780,670.265991   C626.481750,666.484070 627.758606,665.114075 631.208313,665.067505   C632.706421,665.047241 634.209229,665.054810 635.700745,664.935425   C639.684265,664.616699 641.402893,666.179260 641.307129,670.394531   C641.080200,680.380493 641.209961,690.374573 641.199219,700.835815  z"/>
<path fill="#000000" opacity="1.000000" stroke="none" d=" M467.575073,710.297302   C471.010498,709.323730 474.097961,708.790405 477.257568,708.456055   C480.186096,708.146179 483.057709,707.298584 485.925140,706.693909   C484.706177,697.588989 478.362671,696.988892 460.776703,703.974731   C457.578979,695.780396 459.385376,691.802734 467.460907,689.903076   C471.166718,689.031250 474.970306,688.422546 478.763947,688.104675   C491.734406,687.017700 499.398926,693.529236 500.023987,706.731140   C500.487823,716.527283 500.091675,726.362732 500.147339,736.180298   C500.164032,739.126648 498.901917,740.485413 495.928314,740.286072   C494.603210,740.197266 493.258667,740.183533 491.937164,740.298828   C488.442932,740.603577 485.896362,739.856934 486.573151,735.009888   C478.312744,741.217529 469.742096,743.881714 460.763947,738.824707   C455.294525,735.743896 454.164032,729.758362 454.905457,723.875366   C455.810272,716.696045 460.192627,712.257996 467.575073,710.297302  M477.220947,729.717590   C478.930817,729.720825 480.455658,729.134460 481.874512,728.233826   C484.770172,726.395813 487.858246,720.118591 486.409027,718.013306   C484.119293,714.686951 480.784485,716.817261 477.877686,717.236389   C476.594269,717.421509 475.282318,717.842285 474.133942,718.443665   C471.444061,719.852417 468.667267,721.540283 469.324738,725.132202   C470.011047,728.881592 472.907959,729.966125 477.220947,729.717590  z"/>
<path fill="#000000" opacity="1.000000" stroke="none" d=" M702.699585,707.698914   C707.341187,707.643250 707.504761,705.492554 705.701660,702.514771   C704.175964,699.995056 701.756287,699.284058 698.890808,699.157593   C692.712402,698.884766 687.233337,701.312866 681.691406,703.492432   C678.823181,694.616455 679.964417,692.282776 688.245300,689.964722   C694.556885,688.198059 700.951904,687.650635 707.471863,688.725159   C715.653015,690.073486 720.593018,695.779907 721.048584,705.932007   C721.503357,716.066345 721.156128,726.235718 721.214966,736.389404   C721.230774,739.122559 719.972534,740.531494 717.289734,740.236450   C713.402771,739.809082 708.193298,742.564758 706.892334,735.675842   C702.721497,737.199646 699.539368,739.964111 695.349365,740.733459   C685.464111,742.548584 674.266479,738.669800 675.657898,724.170837   C676.271606,717.775269 679.984253,712.878723 686.652588,710.810181   C691.739258,709.232300 696.947754,708.121704 702.699585,707.698914  M698.885803,729.628662   C706.315735,726.741699 707.640015,724.577332 706.586121,716.750854   C703.131653,715.525085 699.714661,716.860596 696.453369,717.657410   C693.042358,718.490723 689.462219,720.309509 689.915833,724.617798   C690.405884,729.272400 694.004639,730.184998 698.885803,729.628662  z"/>
<path fill="#000000" opacity="1.000000" stroke="none" d=" M382.048096,740.371277   C370.259521,738.578918 364.128815,727.345459 364.265350,714.013245   C364.442169,696.748169 378.639648,685.504883 395.601105,688.700928   C406.632874,690.779663 415.547821,705.686340 412.136292,716.206482   C411.344299,718.648682 409.457550,718.370300 407.692047,718.379395   C400.203796,718.417908 392.715027,718.352722 385.226776,718.390747   C383.264862,718.400696 381.234528,718.017334 379.367554,718.973450   C379.769653,729.823486 387.758057,732.096802 407.358673,726.985779   C410.442200,735.250732 408.610138,738.693665 400.289581,740.289001   C394.357361,741.426331 388.421570,741.823486 382.048096,740.371277  M380.203949,708.150574   C386.054626,709.458740 391.884857,708.706055 397.696899,708.563171   C397.883423,702.629272 395.881592,699.973633 391.222412,699.363342   C385.105865,698.562134 381.355652,701.262207 380.203949,708.150574  z"/>
<path fill="#000000" opacity="1.000000" stroke="none" d=" M420.762390,725.990662   C420.753296,715.342529 420.898438,705.188538 420.663269,695.043396   C420.566162,690.855591 422.103760,689.547913 426.177551,689.609741   C433.889587,689.726746 433.892517,689.533691 435.665283,695.738953   C438.602112,692.253723 441.509430,689.093323 446.006256,688.183899   C450.681000,687.238281 452.278351,688.281006 452.296448,692.895020   C452.308044,695.849121 452.766266,698.852173 451.931763,701.654541   C450.803772,702.703186 449.580597,702.405334 448.481720,702.235291   C439.142151,700.789673 434.902527,708.149902 435.544098,715.202087   C436.165985,722.037476 435.231903,728.830811 435.803894,735.628784   C436.061035,738.685120 434.830017,740.096191 431.545258,740.274170   C421.067474,740.842102 420.834625,740.733154 420.787842,730.481995   C420.781738,729.150818 420.771606,727.819580 420.762390,725.990662  z"/>
<path fill="#000000" opacity="1.000000" stroke="none" d=" M515.149658,571.452148   C519.664856,565.252808 525.547668,563.210022 532.469666,564.783752   C538.049316,566.052246 541.763550,569.703064 543.359680,575.332031   C545.199463,581.820068 542.859253,589.200562 537.807007,592.743225   C532.505676,596.460632 523.647766,596.423950 518.501953,592.663269   C513.977905,589.357178 511.776184,581.749695 513.582520,575.508789   C513.949829,574.239929 514.488403,573.020752 515.149658,571.452148  z"/>
<path fill="#000000" opacity="1.000000" stroke="none" d=" M600.468262,739.854492   C598.669678,738.332825 598.928467,736.609375 598.927368,734.964600   C598.918457,721.813904 599.071472,708.660522 598.841431,695.513855   C598.760071,690.861633 600.463013,689.463562 604.976074,689.592957   C613.015503,689.823425 613.340210,689.582092 613.575439,697.607483   C613.945557,710.236084 613.775146,722.879700 613.972168,735.514771   C614.030273,739.238525 612.465881,740.625366 608.858582,740.307556   C606.213440,740.074585 603.542969,740.129456 600.468262,739.854492  z"/>
<path fill="#000000" opacity="1.000000" stroke="none" d=" M483.929260,773.910278   C488.426971,774.390747 492.793182,775.346252 491.627594,768.568420   C491.255157,766.402832 492.671814,765.638611 494.648010,765.621216   C496.825226,765.601990 497.235840,767.163147 496.892609,768.666626   C495.994446,772.600769 497.326447,774.292908 501.384247,774.057678   C502.737335,773.979309 504.052216,774.512390 504.157471,776.273499   C504.263794,778.052673 503.034119,778.701965 501.649506,778.723328   C497.464050,778.787903 496.884674,781.364563 497.028137,784.742493   C497.155121,787.732178 497.019836,790.732117 497.042114,793.727173   C497.085510,799.563782 497.615479,800.106323 503.540253,800.474976   C504.989777,803.233459 503.488464,804.440430 501.040833,805.066711   C496.470703,806.236145 492.522675,803.476074 491.619385,798.674255   C490.746216,794.032776 491.550385,789.372803 491.275604,784.740540   C491.100861,781.794861 491.691681,778.101868 486.589813,778.328369   C479.483185,778.643799 478.418884,779.338013 478.370575,785.146301   C478.327667,790.304688 478.373322,795.464111 478.298981,800.621887   C478.276611,802.175110 478.777954,804.199829 476.175720,804.322083   C473.302460,804.457092 473.610565,802.390991 473.612396,800.555908   C473.617767,795.230835 473.606384,789.905579 473.644318,784.580750   C473.666321,781.490784 473.904816,778.343567 469.408081,778.265686   C468.288483,778.246277 467.585846,777.517517 467.527161,776.344360   C467.481812,775.437500 467.858948,774.456482 468.721436,774.400024   C473.649902,774.077393 472.863586,770.060364 473.531494,767.061523   C474.831848,761.222961 477.199860,758.827576 482.240021,758.444336   C484.140015,758.299927 486.090698,758.105408 486.514954,760.622620   C486.943695,763.166504 485.015686,763.015076 483.339783,763.268188   C478.890411,763.940125 478.734924,767.660828 478.507782,770.883972   C478.250153,774.539185 481.279663,773.795654 483.929260,773.910278  z"/>
<path fill="#000000" opacity="1.000000" stroke="none" d=" M504.202026,622.269043   C498.935944,622.799500 494.147888,623.323425 489.356964,623.819458   C487.541809,624.007507 485.722443,624.207825 483.900696,624.264954   C481.716248,624.333313 479.965607,623.703491 479.554932,621.157288   C479.100891,618.342346 481.047821,617.649170 483.074524,617.327515   C490.294495,616.182007 497.507263,614.874573 504.775360,614.172363   C521.455261,612.560852 537.990784,614.400757 554.455505,616.974854   C556.422729,617.282349 558.543457,617.928467 558.415344,620.611450   C558.283020,623.383057 556.329590,624.343750 553.956238,624.230286   C550.313354,624.056152 546.672058,623.676758 543.052795,623.208862   C530.291199,621.558716 517.487549,621.866211 504.202026,622.269043  z"/>
<path fill="#000000" opacity="1.000000" stroke="none" d=" M528.110962,784.358276   C526.032043,786.409363 526.051514,786.415588 525.306885,788.741577   C523.938171,793.017212 522.532776,797.281067 521.165771,801.557251   C520.614319,803.282471 519.748230,804.514343 517.683411,804.489929   C515.768982,804.467224 514.567078,803.670288 513.983215,801.815735   C511.436646,793.727356 508.867157,785.646118 506.275848,777.571960   C505.679565,775.714050 505.724731,774.222534 508.064545,773.868469   C510.336182,773.524658 511.792664,774.186218 512.410583,776.739441   C513.932373,783.027161 515.711365,789.252563 517.651367,796.489197   C520.797424,789.968323 522.014771,783.819031 524.085510,777.983521   C524.743713,776.128601 525.014465,773.944092 527.739136,773.971497   C530.498657,773.999207 530.696228,776.282349 531.273254,778.107971   C533.114624,783.933960 534.862793,789.789368 537.030823,796.890625   C538.837769,790.722473 540.256042,785.699402 541.796814,780.714233   C542.382263,778.820007 543.095276,776.929138 544.038391,775.193359   C544.747742,773.887756 546.182861,773.655579 547.554688,774.228027   C548.903198,774.790710 548.981628,775.938782 548.579895,777.162598   C545.778503,785.696106 542.957825,794.223267 540.167175,802.760315   C539.645508,804.356323 538.409607,804.622070 537.011475,804.585754   C535.139282,804.537170 534.038696,803.684692 533.483887,801.749146   C531.835510,795.997437 529.999146,790.299622 528.110962,784.358276  z"/>
<path fill="#000000" opacity="1.000000" stroke="none" d=" M414.854431,761.229004   C418.727264,760.544434 422.168915,760.467468 425.634003,761.324463   C429.033875,762.165283 429.926971,763.992554 428.324677,767.432068   C424.473633,766.644287 420.847473,764.419128 416.737640,766.096313   C414.357056,767.067810 411.943665,767.789368 411.389343,770.679138   C410.820770,773.643005 412.146667,775.972534 414.539307,777.492676   C417.478516,779.359985 420.629944,780.891174 423.672424,782.598389   C428.572388,785.347839 431.406464,790.448608 430.557220,795.351318   C429.610321,800.817688 425.792816,803.462036 420.765350,804.750610   C416.605652,805.816772 412.515045,805.390442 408.498199,804.040771   C405.498871,803.032959 404.211395,801.117981 405.558075,797.506775   C408.378937,798.373901 411.110931,799.350769 413.913086,800.044312   C418.545319,801.190857 423.563660,799.213623 424.470398,795.796387   C425.696289,791.176086 422.823792,788.706665 419.236389,786.740845   C416.616272,785.305054 413.926605,783.972046 411.422729,782.353699   C407.178772,779.610596 404.927856,775.808472 405.725525,770.543640   C406.501953,765.418701 409.877502,762.839111 414.854431,761.229004  z"/>
<path fill="#000000" opacity="1.000000" stroke="none" d=" M626.291931,783.987915   C626.771118,790.912781 626.768066,790.789734 619.998779,790.958923   C615.278687,791.076843 610.446411,790.216736 605.814819,791.731506   C607.063232,800.771301 611.078369,802.167175 624.012329,798.333496   C625.332703,801.019897 624.234802,802.595154 621.772949,803.756042   C615.866211,806.541321 607.551575,805.365417 603.580505,801.125000   C599.123840,796.365906 598.403625,787.442993 601.951782,780.945251   C605.048218,775.274658 610.775513,772.610413 617.628113,773.789368   C623.081543,774.727600 625.131104,778.773743 626.291931,783.987915  M613.536743,786.006165   C614.363403,786.001953 615.196594,786.062622 616.015381,785.980408   C617.864319,785.794678 620.366211,786.553162 620.604492,783.574280   C620.803589,781.085266 619.103149,779.622314 617.047791,778.698914   C612.338196,776.582947 607.668396,779.525085 606.387390,785.382996   C608.367065,786.610474 610.564697,785.799683 613.536743,786.006165  z"/>
<path fill="#000000" opacity="1.000000" stroke="none" d=" M435.017609,789.980408   C436.104950,774.404480 446.687256,772.099976 455.262207,774.130066   C461.970184,775.718079 466.081116,783.030823 465.144775,791.076233   C464.187225,799.303711 458.580872,804.907715 450.969788,805.245117   C443.307648,805.584900 437.173584,801.034546 435.615570,793.831543   C435.370056,792.696533 435.220032,791.540894 435.017609,789.980408  M459.571564,787.013428   C459.421448,786.366333 459.315399,785.705261 459.114319,785.074402   C457.303040,779.390869 453.319031,777.084900 447.640564,778.414307   C442.577698,779.599670 440.081573,784.984558 441.179016,792.353882   C441.979462,797.729187 445.778229,801.109863 450.632202,800.557007   C452.077301,800.392395 453.646912,799.958069 454.836731,799.163757   C458.858307,796.478882 459.933319,792.407715 459.571564,787.013428  z"/>
<path fill="#000000" opacity="1.000000" stroke="none" d=" M568.047791,779.747070   C563.222046,776.053162 558.992493,779.751038 554.872803,780.328491   C553.628479,779.245239 553.848206,778.195068 554.432312,777.397217   C557.567932,773.113647 562.234009,773.521851 566.678772,773.783081   C570.215576,773.991089 573.153198,775.613525 574.144836,779.337524   C576.147827,786.860352 575.217712,794.548340 574.939758,802.151611   C574.828674,805.191711 571.747192,805.264709 568.870300,802.350830   C565.151306,804.927856 561.175171,806.210449 556.693787,804.458069   C553.109680,803.056580 550.949707,800.532288 550.842712,796.591675   C550.732849,792.545654 552.482971,789.587341 556.248596,787.868530   C559.190674,786.525635 562.387939,786.411072 565.486755,785.967041   C569.712769,785.361450 570.767639,783.617798 568.047791,779.747070  M567.462341,797.919678   C569.170166,795.952148 570.690308,793.548889 569.081177,791.233032   C567.695435,789.238708 565.119751,790.533386 563.053955,790.869324   C562.076233,791.028381 561.056274,791.126465 560.150208,791.489014   C557.833313,792.416260 555.990906,793.995728 556.548523,796.696899   C557.120544,799.468018 559.227539,800.682678 562.074707,800.628174   C564.026672,800.590820 565.543152,799.693176 567.462341,797.919678  z"/>
<path fill="#000000" opacity="1.000000" stroke="none" d=" M434.365723,474.319580   C431.634155,478.336578 429.188843,482.117706 426.533905,485.745422   C423.802063,489.478180 419.896484,490.537445 417.061371,488.305695   C413.698212,485.658295 413.826935,482.050751 415.799835,478.878052   C419.668060,472.657471 424.186737,466.862244 429.057037,461.380768   C431.563934,458.559296 434.667053,457.565765 437.831940,460.332642   C440.692810,462.833801 440.628662,465.764465 438.351562,468.744537   C437.037903,470.463776 435.820618,472.256622 434.365723,474.319580  z"/>
<path fill="#000000" opacity="1.000000" stroke="none" d=" M606.133728,664.981812   C609.456055,665.511536 612.470947,665.794922 614.275574,668.753113   C616.688354,672.708130 615.591309,677.722473 611.683350,680.073914   C607.331482,682.692444 601.345276,681.288147 598.998840,677.098267   C596.614075,672.840027 598.243835,668.134094 602.905823,665.954712   C603.801208,665.536194 604.791748,665.320984 606.133728,664.981812  z"/>
<path fill="#000000" opacity="1.000000" stroke="none" d=" M595.933472,773.739990   C598.569153,774.449951 598.395569,776.026489 597.896667,777.732300   C588.948242,780.016663 588.189758,781.029419 588.135620,790.662354   C588.116028,794.147278 588.094788,797.632446 588.039124,801.116882   C588.010132,802.932129 587.571960,804.446899 585.271179,804.388550   C582.931580,804.329041 582.710754,802.705200 582.708618,800.943970   C582.699036,792.978149 582.695129,785.012329 582.714172,777.046509   C582.717957,775.449158 583.653931,773.169800 584.975037,774.097717   C588.846313,776.816650 592.033691,773.358643 595.933472,773.739990  z"/>
<path fill="#000000" opacity="1.000000" stroke="none" d=" M417.768921,646.068970   C412.043823,648.508179 406.937866,646.266907 402.040497,643.724060   C400.189392,642.763000 400.485718,640.690491 402.451050,639.848755   C408.319397,637.335205 414.520874,636.520569 420.877502,636.888123   C421.741394,636.937988 422.516632,637.377197 422.689026,638.299622   C422.898407,639.420044 422.301514,640.346619 421.300049,640.636536   C419.593781,641.130554 417.811737,641.362976 416.124542,641.692932   C415.407562,643.697510 417.328064,644.395020 417.768921,646.068970  z"/>
<path fill="#000000" opacity="1.000000" stroke="none" d=" M637.915100,644.872681   C633.459534,647.971802 628.879883,647.524414 624.067505,646.643982   C623.840942,643.930542 624.682190,641.850342 626.867676,641.834595   C630.715271,641.806824 635.132690,640.343628 637.915100,644.872681  z"/>
</svg>